<mxfile host="app.diagrams.net" modified="2024-11-09T21:08:38.419Z" agent="Mozilla/5.0 (Windows NT 10.0; Win64; x64) AppleWebKit/537.36 (KHTML, like Gecko) Chrome/130.0.0.0 Safari/537.36" version="21.2.3" etag="gthGSGqEFw3hFIBr7Fa2" type="github">
  <diagram name="PÃ¡gina-1" id="Ls1-TqhcQpBvm7vMCFek">
    <mxGraphModel>
      <root>
        <mxCell id="0" />
        <mxCell id="1" parent="0" />
      </root>
    </mxGraphModel>
  </diagram>
</mxfile>
